<!DOCTYPE svg PUBLIC "-//W3C//DTD SVG 1.1//EN" "http://www.w3.org/Graphics/SVG/1.1/DTD/svg11.dtd">
<!-- Uploaded to: SVG Repo, www.svgrepo.com, Transformed by: SVG Repo Mixer Tools -->
<svg fill="#ffffff" height="800px" width="800px" version="1.1" id="Capa_1" xmlns="http://www.w3.org/2000/svg" xmlns:xlink="http://www.w3.org/1999/xlink" viewBox="0 0 297 297" xml:space="preserve">
<g id="SVGRepo_bgCarrier" stroke-width="0"/>
<g id="SVGRepo_tracerCarrier" stroke-linecap="round" stroke-linejoin="round"/>
<g id="SVGRepo_iconCarrier"> <g> <path d="M263.535,0H33.465C15.013,0,0,15.013,0,33.465v230.07C0,281.987,15.013,297,33.465,297h230.07 C281.987,297,297,281.987,297,263.535V33.465C297,15.013,281.987,0,263.535,0z M276.085,263.535c0,6.92-5.63,12.549-12.55,12.549 H33.465c-6.92,0-12.55-5.629-12.55-12.549V33.465c0-6.92,5.63-12.55,12.55-12.55h230.07c6.92,0,12.55,5.63,12.55,12.55V263.535z"/> <path d="M255.237,114.583l-66.652-10.704l-30.777-60.083c-1.789-3.494-5.383-5.69-9.308-5.69s-7.519,2.196-9.308,5.69 l-30.777,60.083l-66.652,10.704c-3.876,0.622-7.075,3.36-8.289,7.094c-1.212,3.731-0.233,7.829,2.536,10.609l47.632,47.838 l-10.417,66.699c-0.605,3.878,1.01,7.768,4.185,10.073c3.176,2.309,7.375,2.643,10.875,0.868l60.216-30.518l60.216,30.518 c1.493,0.757,3.112,1.13,4.727,1.13c2.169,0,4.327-0.674,6.147-1.998c3.176-2.306,4.791-6.195,4.186-10.073l-10.417-66.699 l47.632-47.838c2.77-2.78,3.748-6.878,2.536-10.609C262.313,117.943,259.113,115.205,255.237,114.583z M194.798,169.122 c-2.351,2.361-3.437,5.701-2.922,8.992l8.084,51.766l-46.733-23.686c-1.486-0.753-3.106-1.13-4.727-1.13s-3.241,0.377-4.727,1.13 L97.039,229.88l8.085-51.766c0.515-3.291-0.571-6.631-2.922-8.992l-36.966-37.126l51.728-8.307c3.291-0.528,6.132-2.592,7.65-5.558 l23.886-46.63l23.886,46.63c1.519,2.966,4.359,5.029,7.65,5.558l51.729,8.307L194.798,169.122z"/> </g> </g>
</svg>