<?xml version="1.0" encoding="utf-8"?>

<!-- Uploaded to: SVG Repo, www.svgrepo.com, Generator: SVG Repo Mixer Tools -->
<svg width="800px" height="800px" viewBox="-2.98 0 20.004 20.004" xmlns="http://www.w3.org/2000/svg">
  <g id="thunder" transform="translate(-4.967 -1.996)">
    <path id="secondary" fill="#00ab41" d="M17.76,10.63,9,21l2.14-8H7.05a1,1,0,0,1-1-1.36l3.23-8a1.05,1.05,0,0,1,1-.64h4.34a1,1,0,0,1,1,1.36L13.7,9H17a1,1,0,0,1,.76,1.63Z"/>
    <path id="primary" d="M17.76,10.63,9,21l2.14-8H7.05a1,1,0,0,1-1-1.36l3.23-8a1.05,1.05,0,0,1,1-.64h4.34a1,1,0,0,1,1,1.36L13.7,9H17a1,1,0,0,1,.76,1.63Z" fill="none" stroke="#00ab41" stroke-linecap="round" stroke-linejoin="round" stroke-width="2"/>
  </g>
</svg>